<svg xmlns="http://www.w3.org/2000/svg" xmlns:xlink="http://www.w3.org/1999/xlink" width="231" zoomAndPan="magnify" viewBox="0 0 173.25 155.999997" height="208" preserveAspectRatio="xMidYMid meet" version="1.0"><defs><clipPath id="a4181c3366"><path d="M 21.714844 0.335938 L 172.074219 0.335938 L 172.074219 150.695312 L 21.714844 150.695312 Z M 21.714844 0.335938 " clip-rule="nonzero"/></clipPath><clipPath id="522d7defaf"><path d="M 96.894531 0.335938 C 55.375 0.335938 21.714844 33.996094 21.714844 75.515625 C 21.714844 117.035156 55.375 150.695312 96.894531 150.695312 C 138.414062 150.695312 172.074219 117.035156 172.074219 75.515625 C 172.074219 33.996094 138.414062 0.335938 96.894531 0.335938 Z M 96.894531 0.335938 " clip-rule="nonzero"/></clipPath><clipPath id="431025676a"><path d="M 0 38 L 129.9375 38 L 129.9375 154.832031 L 0 154.832031 Z M 0 38 " clip-rule="nonzero"/></clipPath></defs><g clip-path="url(#a4181c3366)"><g clip-path="url(#522d7defaf)"><path fill="#f2f8fe" d="M 21.714844 0.335938 L 172.074219 0.335938 L 172.074219 150.695312 L 21.714844 150.695312 Z M 21.714844 0.335938 " fill-opacity="1" fill-rule="nonzero"/></g></g><g clip-path="url(#431025676a)"><path fill="#3d3d3d" d="M 123.144531 83.949219 L 111.992188 83.949219 L 111.992188 44.117188 C 111.992188 40.765625 109.261719 38.019531 105.894531 38.019531 L 6.09375 38.019531 C 2.734375 38.019531 0 40.753906 0 44.113281 L 0 55.058594 L 0.00390625 55.058594 L 0.00390625 106.996094 C 0.00390625 110.359375 2.738281 113.09375 6.101562 113.09375 L 13.390625 113.09375 L 13.390625 148.160156 C 13.390625 151.71875 16.285156 154.613281 19.847656 154.613281 L 53.152344 154.613281 C 56.710938 154.613281 59.609375 151.71875 59.609375 148.160156 L 59.609375 113.09375 L 71.441406 113.09375 L 71.441406 128.144531 C 71.441406 131.703125 74.339844 134.601562 77.898438 134.601562 L 123.144531 134.601562 C 126.707031 134.601562 129.601562 131.707031 129.601562 128.144531 C 129.601562 118.445312 129.601562 114.941406 129.601562 90.40625 C 129.597656 86.847656 126.703125 83.949219 123.144531 83.949219 Z M 74.476562 90.40625 C 74.476562 88.519531 76.011719 86.988281 77.894531 86.988281 L 123.140625 86.988281 C 125.027344 86.988281 126.558594 88.519531 126.558594 90.40625 L 126.558594 95.742188 L 74.476562 95.742188 Z M 3.042969 44.117188 C 3.042969 42.433594 4.414062 41.058594 6.101562 41.058594 L 105.898438 41.058594 C 107.582031 41.058594 108.953125 42.429688 108.953125 44.113281 L 108.953125 52.019531 L 3.042969 52.019531 Z M 19.84375 86.988281 L 53.148438 86.988281 C 55.035156 86.988281 56.566406 88.519531 56.566406 90.40625 L 56.566406 96.574219 L 16.425781 96.574219 L 16.425781 90.40625 C 16.425781 88.519531 17.960938 86.988281 19.84375 86.988281 Z M 53.148438 151.578125 L 19.84375 151.578125 C 17.960938 151.578125 16.425781 150.042969 16.425781 148.160156 L 16.425781 99.613281 L 56.566406 99.613281 L 56.566406 148.160156 C 56.566406 150.042969 55.035156 151.578125 53.148438 151.578125 Z M 59.601562 110.054688 C 59.601562 99.246094 59.601562 101.601562 59.601562 90.40625 C 59.601562 86.847656 56.707031 83.949219 53.148438 83.949219 L 19.84375 83.949219 C 16.285156 83.949219 13.386719 86.847656 13.386719 90.40625 C 13.386719 101.585938 13.386719 99.230469 13.386719 110.054688 L 6.101562 110.054688 C 4.414062 110.054688 3.042969 108.683594 3.042969 106.996094 L 3.042969 55.058594 L 108.957031 55.058594 L 108.957031 83.949219 L 77.894531 83.949219 C 74.335938 83.949219 71.441406 86.847656 71.441406 90.40625 C 71.441406 115.269531 71.441406 86.804688 71.441406 110.054688 Z M 126.5625 128.144531 C 126.5625 130.027344 125.027344 131.5625 123.144531 131.5625 L 77.894531 131.5625 C 76.011719 131.5625 74.476562 130.03125 74.476562 128.144531 L 74.476562 98.78125 L 126.5625 98.78125 Z M 126.5625 128.144531 " fill-opacity="1" fill-rule="nonzero"/></g><path fill="#3d3d3d" d="M 100.269531 42.074219 C 97.808594 42.074219 95.808594 44.078125 95.808594 46.539062 C 95.808594 49 97.808594 51.003906 100.269531 51.003906 C 102.734375 51.003906 104.738281 49 104.738281 46.539062 C 104.738281 44.078125 102.730469 42.074219 100.269531 42.074219 Z M 100.269531 47.964844 C 99.484375 47.964844 98.84375 47.324219 98.84375 46.535156 C 98.84375 45.75 99.484375 45.109375 100.269531 45.109375 C 101.058594 45.109375 101.699219 45.75 101.699219 46.535156 C 101.699219 47.324219 101.058594 47.964844 100.269531 47.964844 Z M 100.269531 47.964844 " fill-opacity="1" fill-rule="nonzero"/><path fill="#3d3d3d" d="M 88.976562 42.074219 C 86.515625 42.074219 84.511719 44.078125 84.511719 46.539062 C 84.511719 49 86.515625 51.003906 88.976562 51.003906 C 91.441406 51.003906 93.441406 49 93.441406 46.539062 C 93.441406 44.078125 91.441406 42.074219 88.976562 42.074219 Z M 88.976562 47.964844 C 88.191406 47.964844 87.550781 47.324219 87.550781 46.535156 C 87.550781 45.75 88.191406 45.109375 88.976562 45.109375 C 89.765625 45.109375 90.40625 45.75 90.40625 46.535156 C 90.40625 47.324219 89.765625 47.964844 88.976562 47.964844 Z M 88.976562 47.964844 " fill-opacity="1" fill-rule="nonzero"/><path fill="#3d3d3d" d="M 50.859375 95.660156 C 52.996094 95.660156 54.734375 93.921875 54.734375 91.78125 C 54.734375 89.644531 52.996094 87.90625 50.859375 87.90625 C 48.71875 87.90625 46.980469 89.644531 46.980469 91.78125 C 46.980469 93.917969 48.71875 95.660156 50.859375 95.660156 Z M 50.859375 90.941406 C 51.320312 90.941406 51.699219 91.320312 51.699219 91.78125 C 51.699219 92.246094 51.320312 92.621094 50.859375 92.621094 C 50.394531 92.621094 50.019531 92.246094 50.019531 91.78125 C 50.019531 91.320312 50.394531 90.941406 50.859375 90.941406 Z M 50.859375 90.941406 " fill-opacity="1" fill-rule="nonzero"/><path fill="#3d3d3d" d="M 41.425781 95.660156 C 43.566406 95.660156 45.304688 93.921875 45.304688 91.78125 C 45.304688 89.644531 43.566406 87.90625 41.425781 87.90625 C 39.289062 87.90625 37.550781 89.644531 37.550781 91.78125 C 37.550781 93.917969 39.289062 95.660156 41.425781 95.660156 Z M 41.425781 90.941406 C 41.890625 90.941406 42.265625 91.320312 42.265625 91.78125 C 42.265625 92.246094 41.890625 92.621094 41.425781 92.621094 C 40.964844 92.621094 40.589844 92.246094 40.589844 91.78125 C 40.589844 91.320312 40.964844 90.941406 41.425781 90.941406 Z M 41.425781 90.941406 " fill-opacity="1" fill-rule="nonzero"/><path fill="#3d3d3d" d="M 120.453125 87.488281 C 118.3125 87.488281 116.578125 89.226562 116.578125 91.363281 C 116.578125 93.503906 118.3125 95.238281 120.453125 95.238281 C 122.589844 95.238281 124.328125 93.5 124.328125 91.363281 C 124.328125 89.226562 122.589844 87.488281 120.453125 87.488281 Z M 120.453125 92.203125 C 119.988281 92.203125 119.613281 91.828125 119.613281 91.367188 C 119.613281 90.902344 119.992188 90.527344 120.453125 90.527344 C 120.914062 90.527344 121.289062 90.902344 121.289062 91.367188 C 121.289062 91.828125 120.914062 92.203125 120.453125 92.203125 Z M 120.453125 92.203125 " fill-opacity="1" fill-rule="nonzero"/><path fill="#3d3d3d" d="M 110.9375 87.488281 C 108.800781 87.488281 107.0625 89.226562 107.0625 91.363281 C 107.0625 93.503906 108.800781 95.238281 110.9375 95.238281 C 113.078125 95.238281 114.816406 93.5 114.816406 91.363281 C 114.816406 89.226562 113.078125 87.488281 110.9375 87.488281 Z M 110.9375 92.203125 C 110.476562 92.203125 110.101562 91.828125 110.101562 91.367188 C 110.101562 90.902344 110.476562 90.527344 110.9375 90.527344 C 111.402344 90.527344 111.777344 90.902344 111.777344 91.367188 C 111.777344 91.828125 111.402344 92.203125 110.9375 92.203125 Z M 110.9375 92.203125 " fill-opacity="1" fill-rule="nonzero"/><path fill="#3d3d3d" d="M 71.894531 45.019531 L 11.226562 45.019531 C 10.386719 45.019531 9.707031 45.699219 9.707031 46.539062 C 9.707031 47.378906 10.386719 48.058594 11.226562 48.058594 L 71.894531 48.058594 C 72.730469 48.058594 73.410156 47.378906 73.410156 46.539062 C 73.410156 45.699219 72.730469 45.019531 71.894531 45.019531 Z M 71.894531 45.019531 " fill-opacity="1" fill-rule="nonzero"/><path fill="#3d3d3d" d="M 19.972656 93.300781 L 33.195312 93.300781 C 34.03125 93.300781 34.710938 92.621094 34.710938 91.78125 C 34.710938 90.945312 34.03125 90.265625 33.195312 90.265625 L 19.972656 90.265625 C 19.132812 90.265625 18.453125 90.945312 18.453125 91.78125 C 18.453125 92.621094 19.132812 93.300781 19.972656 93.300781 Z M 19.972656 93.300781 " fill-opacity="1" fill-rule="nonzero"/><path fill="#3d3d3d" d="M 102.792969 90.265625 L 79.421875 90.265625 C 78.582031 90.265625 77.902344 90.945312 77.902344 91.78125 C 77.902344 92.621094 78.582031 93.300781 79.421875 93.300781 L 102.792969 93.300781 C 103.628906 93.300781 104.3125 92.621094 104.3125 91.78125 C 104.3125 90.941406 103.628906 90.265625 102.792969 90.265625 Z M 102.792969 90.265625 " fill-opacity="1" fill-rule="nonzero"/></svg>