<svg xmlns="http://www.w3.org/2000/svg" xmlns:xlink="http://www.w3.org/1999/xlink" width="251" zoomAndPan="magnify" viewBox="0 0 188.25 151.499993" height="202" preserveAspectRatio="xMidYMid meet" version="1.0"><defs><clipPath id="a5981a86eb"><path d="M 36.816406 0.0507812 L 187.226562 0.0507812 L 187.226562 150.460938 L 36.816406 150.460938 Z M 36.816406 0.0507812 " clip-rule="nonzero"/></clipPath><clipPath id="31cd892ab1"><path d="M 112.023438 0.0507812 C 70.488281 0.0507812 36.816406 33.722656 36.816406 75.257812 C 36.816406 116.789062 70.488281 150.460938 112.023438 150.460938 C 153.554688 150.460938 187.226562 116.789062 187.226562 75.257812 C 187.226562 33.722656 153.554688 0.0507812 112.023438 0.0507812 Z M 112.023438 0.0507812 " clip-rule="nonzero"/></clipPath><clipPath id="c69656be9a"><path d="M 32 28 L 109 28 L 109 125 L 32 125 Z M 32 28 " clip-rule="nonzero"/></clipPath><clipPath id="a9cbba7685"><path d="M 0 42.738281 L 107.453125 16.714844 L 133.476562 124.167969 L 26.023438 150.191406 Z M 0 42.738281 " clip-rule="nonzero"/></clipPath><clipPath id="8c5dbd9a05"><path d="M 0 42.738281 L 107.453125 16.714844 L 133.476562 124.167969 L 26.023438 150.191406 Z M 0 42.738281 " clip-rule="nonzero"/></clipPath><clipPath id="34a632c6e9"><path d="M 61 50 L 93 50 L 93 82 L 61 82 Z M 61 50 " clip-rule="nonzero"/></clipPath><clipPath id="770e71e822"><path d="M 0 42.738281 L 107.453125 16.714844 L 133.476562 124.167969 L 26.023438 150.191406 Z M 0 42.738281 " clip-rule="nonzero"/></clipPath><clipPath id="07aaad716c"><path d="M 0 42.738281 L 107.453125 16.714844 L 133.476562 124.167969 L 26.023438 150.191406 Z M 0 42.738281 " clip-rule="nonzero"/></clipPath><clipPath id="93f8ec22ac"><path d="M 36 83 L 80 83 L 80 113 L 36 113 Z M 36 83 " clip-rule="nonzero"/></clipPath><clipPath id="680454ae02"><path d="M 0 42.738281 L 107.453125 16.714844 L 133.476562 124.167969 L 26.023438 150.191406 Z M 0 42.738281 " clip-rule="nonzero"/></clipPath><clipPath id="4c9b05935f"><path d="M 0 42.738281 L 107.453125 16.714844 L 133.476562 124.167969 L 26.023438 150.191406 Z M 0 42.738281 " clip-rule="nonzero"/></clipPath><clipPath id="1f78ae27d4"><path d="M 63 96 L 94 96 L 94 140 L 63 140 Z M 63 96 " clip-rule="nonzero"/></clipPath><clipPath id="b8a2afd9df"><path d="M 0 42.738281 L 107.453125 16.714844 L 133.476562 124.167969 L 26.023438 150.191406 Z M 0 42.738281 " clip-rule="nonzero"/></clipPath><clipPath id="47ee99599c"><path d="M 0 42.738281 L 107.453125 16.714844 L 133.476562 124.167969 L 26.023438 150.191406 Z M 0 42.738281 " clip-rule="nonzero"/></clipPath><clipPath id="d5e651b7cc"><path d="M 14 69 L 47 69 L 47 107 L 14 107 Z M 14 69 " clip-rule="nonzero"/></clipPath><clipPath id="f330e124d1"><path d="M 0 42.738281 L 107.453125 16.714844 L 133.476562 124.167969 L 26.023438 150.191406 Z M 0 42.738281 " clip-rule="nonzero"/></clipPath><clipPath id="fdd4bdecfb"><path d="M 0 42.738281 L 107.453125 16.714844 L 133.476562 124.167969 L 26.023438 150.191406 Z M 0 42.738281 " clip-rule="nonzero"/></clipPath><clipPath id="f50ecff786"><path d="M 22 114 L 36 114 L 36 131 L 22 131 Z M 22 114 " clip-rule="nonzero"/></clipPath><clipPath id="f24188af47"><path d="M 0 42.738281 L 107.453125 16.714844 L 133.476562 124.167969 L 26.023438 150.191406 Z M 0 42.738281 " clip-rule="nonzero"/></clipPath><clipPath id="ed590eda19"><path d="M 0 42.738281 L 107.453125 16.714844 L 133.476562 124.167969 L 26.023438 150.191406 Z M 0 42.738281 " clip-rule="nonzero"/></clipPath><clipPath id="0fba2b7487"><path d="M 27 120 L 46 120 L 46 146 L 27 146 Z M 27 120 " clip-rule="nonzero"/></clipPath><clipPath id="6c1e5ae988"><path d="M 0 42.738281 L 107.453125 16.714844 L 133.476562 124.167969 L 26.023438 150.191406 Z M 0 42.738281 " clip-rule="nonzero"/></clipPath><clipPath id="6070e54408"><path d="M 0 42.738281 L 107.453125 16.714844 L 133.476562 124.167969 L 26.023438 150.191406 Z M 0 42.738281 " clip-rule="nonzero"/></clipPath><clipPath id="8ed74ddb3a"><path d="M 42 127 L 56 127 L 56 144 L 42 144 Z M 42 127 " clip-rule="nonzero"/></clipPath><clipPath id="f2519c7d34"><path d="M 0 42.738281 L 107.453125 16.714844 L 133.476562 124.167969 L 26.023438 150.191406 Z M 0 42.738281 " clip-rule="nonzero"/></clipPath><clipPath id="e250f2a68d"><path d="M 0 42.738281 L 107.453125 16.714844 L 133.476562 124.167969 L 26.023438 150.191406 Z M 0 42.738281 " clip-rule="nonzero"/></clipPath></defs><g clip-path="url(#a5981a86eb)"><g clip-path="url(#31cd892ab1)"><path fill="#f2f8fe" d="M 36.816406 0.0507812 L 187.226562 0.0507812 L 187.226562 150.460938 L 36.816406 150.460938 Z M 36.816406 0.0507812 " fill-opacity="1" fill-rule="nonzero"/></g></g><g clip-path="url(#c69656be9a)"><g clip-path="url(#a9cbba7685)"><g clip-path="url(#8c5dbd9a05)"><path fill="#3d3d3d" d="M 101.625 29.945312 C 101.011719 28.886719 99.90625 28.210938 98.683594 28.152344 C 98.683594 28.152344 66.75 26.5 48.171875 56.9375 C 39.019531 71.941406 31.242188 94.75 33.019531 106.316406 C 33.179688 107.363281 33.792969 108.289062 34.703125 108.839844 L 59.144531 123.753906 C 60.050781 124.308594 61.15625 124.429688 62.160156 124.09375 C 73.257812 120.382812 89.980469 103.03125 99.132812 88.027344 C 117.703125 57.585938 101.625 29.945312 101.625 29.945312 Z M 96.300781 35.367188 C 99.097656 41.460938 106.574219 62.007812 92.988281 84.28125 C 85.113281 97.195312 71.351562 112.351562 61.386719 116.6875 C 61.386719 116.6875 39.960938 103.617188 39.960938 103.617188 C 39.261719 92.769531 46.4375 73.601562 54.320312 60.6875 C 67.90625 38.417969 89.601562 35.667969 96.296875 35.363281 Z M 96.300781 35.367188 " fill-opacity="1" fill-rule="evenodd"/></g></g></g><g clip-path="url(#34a632c6e9)"><g clip-path="url(#770e71e822)"><g clip-path="url(#07aaad716c)"><path fill="#3d3d3d" d="M 85.46875 53.113281 C 78.15625 48.652344 68.585938 50.96875 64.125 58.285156 C 59.660156 65.601562 61.976562 75.167969 69.292969 79.632812 C 76.609375 84.09375 86.175781 81.777344 90.640625 74.460938 C 95.101562 67.148438 92.785156 57.578125 85.46875 53.113281 Z M 81.722656 59.261719 C 85.648438 61.65625 86.890625 66.785156 84.496094 70.710938 C 82.097656 74.640625 76.96875 75.882812 73.042969 73.484375 C 69.113281 71.089844 67.871094 65.960938 70.269531 62.035156 C 72.664062 58.105469 77.792969 56.863281 81.722656 59.261719 Z M 81.722656 59.261719 " fill-opacity="1" fill-rule="evenodd"/></g></g></g><g clip-path="url(#93f8ec22ac)"><g clip-path="url(#680454ae02)"><g clip-path="url(#4c9b05935f)"><path fill="#3d3d3d" d="M 77.488281 105.769531 L 42.300781 84.300781 C 40.609375 83.269531 38.390625 83.808594 37.359375 85.5 C 36.324219 87.195312 36.859375 89.410156 38.558594 90.445312 L 73.738281 111.910156 C 75.4375 112.945312 77.652344 112.410156 78.6875 110.710938 C 79.71875 109.019531 79.179688 106.800781 77.488281 105.769531 Z M 77.488281 105.769531 " fill-opacity="1" fill-rule="evenodd"/></g></g></g><g clip-path="url(#1f78ae27d4)"><g clip-path="url(#b8a2afd9df)"><g clip-path="url(#47ee99599c)"><path fill="#3d3d3d" d="M 83.804688 100.941406 C 83.804688 100.941406 84.964844 108.820312 85.773438 114.277344 C 86.070312 116.269531 85.34375 118.273438 83.847656 119.617188 L 73.628906 128.789062 C 73.628906 128.789062 71.078125 118.246094 71.078125 118.246094 C 70.609375 116.316406 68.664062 115.128906 66.734375 115.597656 C 64.800781 116.0625 63.613281 118.011719 64.082031 119.941406 L 68.054688 136.339844 C 68.351562 137.570312 69.277344 138.558594 70.484375 138.929688 C 71.695312 139.304688 73.011719 139.019531 73.957031 138.167969 C 73.957031 138.167969 83.226562 129.847656 88.65625 124.972656 C 91.953125 122.019531 93.546875 117.605469 92.894531 113.226562 C 92.085938 107.769531 90.921875 99.886719 90.921875 99.886719 C 90.628906 97.921875 88.800781 96.5625 86.835938 96.855469 C 84.867188 97.144531 83.511719 98.976562 83.804688 100.941406 Z M 83.804688 100.941406 " fill-opacity="1" fill-rule="evenodd"/></g></g></g><g clip-path="url(#d5e651b7cc)"><g clip-path="url(#f330e124d1)"><g clip-path="url(#fdd4bdecfb)"><path fill="#3d3d3d" d="M 41.386719 69.664062 C 41.386719 69.664062 33.84375 72.238281 28.625 74.015625 C 24.433594 75.441406 21.234375 78.875 20.117188 83.160156 C 18.265625 90.21875 15.109375 102.265625 15.109375 102.265625 C 14.785156 103.496094 15.132812 104.796875 16.019531 105.703125 C 16.902344 106.605469 18.203125 106.976562 19.433594 106.679688 L 35.835938 102.707031 C 37.765625 102.238281 38.953125 100.292969 38.484375 98.363281 C 38.015625 96.433594 36.070312 95.246094 34.140625 95.710938 L 23.597656 98.265625 L 27.078125 84.984375 C 27.589844 83.039062 29.039062 81.476562 30.945312 80.828125 C 36.167969 79.050781 43.703125 76.480469 43.703125 76.480469 C 45.589844 75.839844 46.59375 73.792969 45.949219 71.910156 C 45.3125 70.03125 43.265625 69.027344 41.386719 69.664062 Z M 41.386719 69.664062 " fill-opacity="1" fill-rule="evenodd"/></g></g></g><g clip-path="url(#f50ecff786)"><g clip-path="url(#f24188af47)"><g clip-path="url(#ed590eda19)"><path fill="#3d3d3d" d="M 28.730469 116.300781 L 23.109375 125.507812 C 22.082031 127.203125 22.617188 129.421875 24.308594 130.457031 C 26.003906 131.488281 28.21875 130.949219 29.257812 129.257812 L 34.875 120.046875 C 35.910156 118.351562 35.375 116.136719 33.675781 115.101562 C 31.980469 114.066406 29.765625 114.601562 28.730469 116.300781 Z M 28.730469 116.300781 " fill-opacity="1" fill-rule="evenodd"/></g></g></g><g clip-path="url(#0fba2b7487)"><g clip-path="url(#6c1e5ae988)"><g clip-path="url(#6070e54408)"><path fill="#3d3d3d" d="M 38.917969 122.515625 L 28.328125 139.871094 C 27.292969 141.566406 27.828125 143.78125 29.523438 144.816406 C 31.222656 145.851562 33.4375 145.316406 34.472656 143.617188 L 45.058594 126.261719 C 46.09375 124.570312 45.558594 122.347656 43.859375 121.316406 C 42.167969 120.28125 39.949219 120.820312 38.917969 122.515625 Z M 38.917969 122.515625 " fill-opacity="1" fill-rule="evenodd"/></g></g></g><g clip-path="url(#8ed74ddb3a)"><g clip-path="url(#f2519c7d34)"><g clip-path="url(#e250f2a68d)"><path fill="#3d3d3d" d="M 49.101562 128.726562 L 43.480469 137.9375 C 42.453125 139.632812 42.988281 141.847656 44.679688 142.882812 C 46.375 143.914062 48.589844 143.378906 49.628906 141.6875 L 55.246094 132.476562 C 56.28125 130.78125 55.746094 128.566406 54.046875 127.53125 C 52.351562 126.492188 50.136719 127.03125 49.101562 128.726562 Z M 49.101562 128.726562 " fill-opacity="1" fill-rule="evenodd"/></g></g></g></svg>