<svg xmlns="http://www.w3.org/2000/svg" xmlns:xlink="http://www.w3.org/1999/xlink" width="242" zoomAndPan="magnify" viewBox="0 0 181.5 151.500001" height="202" preserveAspectRatio="xMidYMid meet" version="1.0"><defs><clipPath id="5744e4f32b"><path d="M 29.984375 0 L 180.496094 0 L 180.496094 150.511719 L 29.984375 150.511719 Z M 29.984375 0 " clip-rule="nonzero"/></clipPath><clipPath id="102720373d"><path d="M 105.238281 0 C 63.675781 0 29.984375 33.691406 29.984375 75.257812 C 29.984375 116.820312 63.675781 150.511719 105.238281 150.511719 C 146.800781 150.511719 180.496094 116.820312 180.496094 75.257812 C 180.496094 33.691406 146.800781 0 105.238281 0 Z M 105.238281 0 " clip-rule="nonzero"/></clipPath><clipPath id="d5885f866f"><path d="M 0.0507812 26.777344 L 124.140625 26.777344 L 124.140625 133.675781 L 0.0507812 133.675781 Z M 0.0507812 26.777344 " clip-rule="nonzero"/></clipPath></defs><g clip-path="url(#5744e4f32b)"><g clip-path="url(#102720373d)"><path fill="#f2f8fe" d="M 29.984375 0 L 180.496094 0 L 180.496094 150.511719 L 29.984375 150.511719 Z M 29.984375 0 " fill-opacity="1" fill-rule="nonzero"/></g></g><g clip-path="url(#d5885f866f)"><path fill="#3d3d3d" d="M 13.238281 36.871094 C 13.238281 35.496094 14.351562 34.382812 15.726562 34.382812 C 17.097656 34.382812 18.214844 35.496094 18.214844 36.871094 C 18.214844 38.242188 17.097656 39.359375 15.726562 39.359375 C 14.351562 39.359375 13.238281 38.242188 13.238281 36.871094 Z M 25.277344 39.359375 C 26.652344 39.359375 27.765625 38.242188 27.765625 36.871094 C 27.765625 35.496094 26.652344 34.382812 25.277344 34.382812 C 23.902344 34.382812 22.789062 35.496094 22.789062 36.871094 C 22.789062 38.242188 23.902344 39.359375 25.277344 39.359375 Z M 34.828125 39.359375 C 36.203125 39.359375 37.316406 38.242188 37.316406 36.871094 C 37.316406 35.496094 36.203125 34.382812 34.828125 34.382812 C 33.453125 34.382812 32.339844 35.496094 32.339844 36.871094 C 32.339844 38.242188 33.453125 39.359375 34.828125 39.359375 Z M 124.394531 119.722656 L 124.394531 127.773438 C 124.394531 128.878906 123.496094 129.777344 122.386719 129.777344 L 69.847656 129.777344 C 69.726562 130.128906 69.578125 130.476562 69.386719 130.816406 C 68.246094 132.867188 66.113281 134.023438 63.914062 134.023438 C 62.886719 134.023438 61.84375 133.769531 60.882812 133.234375 C 59.472656 132.449219 58.484375 131.195312 58.003906 129.777344 L 3.410156 129.777344 C 2.304688 129.777344 1.40625 128.878906 1.40625 127.773438 L 1.40625 119.722656 C 1.40625 118.890625 1.917969 118.148438 2.691406 117.851562 L 11.574219 114.429688 C 12.078125 112.488281 12.691406 110.578125 13.410156 108.710938 L 6.328125 108.710938 C 2.875 108.710938 0.0625 105.902344 0.0625 102.449219 L 0.0625 33.03125 C 0.0625 29.578125 2.875 26.769531 6.328125 26.769531 L 100.664062 26.769531 C 104.117188 26.769531 106.925781 29.578125 106.925781 33.03125 L 106.925781 84.832031 L 112.074219 89.980469 C 112.660156 90.570312 112.828125 91.457031 112.488281 92.214844 L 108.625 100.917969 C 111.113281 105.152344 112.996094 109.6875 114.222656 114.429688 L 123.109375 117.847656 C 123.882812 118.148438 124.394531 118.890625 124.394531 119.722656 Z M 4.074219 33.03125 L 4.074219 42.960938 L 102.917969 42.960938 L 102.917969 33.03125 C 102.917969 31.789062 101.90625 30.777344 100.664062 30.777344 L 6.328125 30.777344 C 5.085938 30.777344 4.074219 31.789062 4.074219 33.03125 Z M 15.152344 104.699219 C 15.773438 103.414062 16.449219 102.152344 17.175781 100.917969 L 13.308594 92.214844 C 12.972656 91.457031 13.136719 90.570312 13.722656 89.980469 L 25.109375 78.597656 C 25.695312 78.007812 26.582031 77.84375 27.34375 78.179688 L 36.046875 82.046875 C 40.28125 79.558594 44.816406 77.675781 49.558594 76.449219 L 52.976562 67.5625 C 53.277344 66.789062 54.019531 66.277344 54.847656 66.277344 L 70.949219 66.277344 C 71.78125 66.277344 72.523438 66.789062 72.824219 67.5625 L 76.242188 76.445312 C 80.988281 77.675781 85.523438 79.554688 89.753906 82.046875 L 98.457031 78.183594 C 99.21875 77.84375 100.101562 78.007812 100.691406 78.597656 L 102.917969 80.824219 L 102.917969 46.972656 L 4.074219 46.972656 L 4.074219 102.449219 C 4.074219 103.691406 5.085938 104.699219 6.328125 104.699219 Z M 5.417969 121.097656 L 5.417969 125.765625 L 23.398438 125.765625 C 24.445312 104.308594 42.230469 87.175781 63.941406 87.175781 C 85.65625 87.175781 103.4375 104.308594 104.488281 125.765625 L 120.382812 125.765625 L 120.382812 121.097656 L 111.808594 117.796875 C 111.191406 117.558594 110.734375 117.035156 110.578125 116.390625 C 109.378906 111.34375 107.386719 106.542969 104.660156 102.113281 C 104.3125 101.546875 104.265625 100.851562 104.535156 100.246094 L 108.265625 91.84375 L 98.828125 82.40625 L 90.429688 86.136719 C 89.824219 86.402344 89.125 86.359375 88.5625 86.011719 C 84.132812 83.28125 79.328125 81.292969 74.28125 80.089844 C 73.636719 79.9375 73.109375 79.476562 72.875 78.859375 L 69.574219 70.289062 L 56.226562 70.289062 L 52.925781 78.863281 C 52.6875 79.480469 52.164062 79.9375 51.519531 80.09375 C 46.472656 81.292969 41.671875 83.285156 37.242188 86.011719 C 36.675781 86.359375 35.980469 86.40625 35.375 86.136719 L 26.972656 82.40625 L 17.535156 91.84375 L 21.265625 100.242188 C 21.535156 100.847656 21.488281 101.546875 21.140625 102.109375 C 18.414062 106.535156 16.421875 111.34375 15.21875 116.390625 C 15.066406 117.035156 14.605469 117.5625 13.988281 117.796875 Z M 27.414062 125.765625 L 32.882812 125.765625 C 33.160156 121.5625 34.304688 117.59375 36.136719 114.035156 L 31.308594 111.246094 C 29.070312 115.648438 27.695312 120.566406 27.414062 125.765625 Z M 46.917969 102.292969 L 43.945312 97.152344 C 39.714844 99.921875 36.09375 103.546875 33.320312 107.777344 L 38.210938 110.597656 C 40.523438 107.28125 43.488281 104.453125 46.917969 102.292969 Z M 61.9375 97.703125 L 61.9375 91.242188 C 56.734375 91.523438 51.820312 92.898438 47.414062 95.136719 L 50.449219 100.386719 C 53.96875 98.777344 57.851562 97.832031 61.9375 97.703125 Z M 65.949219 97.839844 C 69.898438 98.238281 73.625 99.40625 76.976562 101.1875 L 80.46875 95.136719 C 76.0625 92.898438 71.148438 91.523438 65.949219 91.242188 Z M 80.386719 103.304688 C 83.464844 105.507812 86.113281 108.28125 88.171875 111.464844 L 94.566406 107.777344 C 91.792969 103.546875 88.167969 99.921875 83.9375 97.148438 Z M 92.917969 125.765625 L 100.472656 125.765625 C 100.191406 120.566406 98.816406 115.648438 96.578125 111.246094 L 90.125 114.972656 C 91.6875 118.285156 92.664062 121.929688 92.917969 125.765625 Z M 61.964844 121.839844 L 72.152344 109.40625 C 72.773438 108.648438 73.847656 108.449219 74.699219 108.933594 C 75.546875 109.417969 75.921875 110.445312 75.585938 111.367188 L 70.304688 125.765625 L 88.898438 125.765625 C 87.871094 112.320312 76.601562 101.695312 62.898438 101.695312 C 49.195312 101.695312 37.929688 112.320312 36.902344 125.765625 L 58.003906 125.765625 C 58.125 125.414062 58.273438 125.066406 58.460938 124.726562 C 59.234375 123.347656 60.472656 122.332031 61.964844 121.839844 Z M 67.734375 121.125 L 66.828125 122.234375 C 66.875 122.257812 66.921875 122.28125 66.96875 122.308594 C 67.0625 122.359375 67.152344 122.414062 67.242188 122.46875 Z M 65.015625 125.8125 C 64.679688 125.625 64.304688 125.527344 63.929688 125.527344 C 63.722656 125.527344 63.515625 125.558594 63.3125 125.613281 C 62.734375 125.777344 62.257812 126.15625 61.964844 126.679688 C 61.363281 127.761719 61.753906 129.128906 62.835938 129.730469 C 63.914062 130.332031 65.28125 129.945312 65.886719 128.863281 C 66.488281 127.78125 66.097656 126.414062 65.015625 125.8125 Z M 65.015625 125.8125 " fill-opacity="1" fill-rule="nonzero"/></g></svg>