<svg xmlns="http://www.w3.org/2000/svg" xmlns:xlink="http://www.w3.org/1999/xlink" width="258" zoomAndPan="magnify" viewBox="0 0 193.5 151.500001" height="202" preserveAspectRatio="xMidYMid meet" version="1.0"><defs><clipPath id="cab2deb2c4"><path d="M 42.289062 0 L 192.800781 0 L 192.800781 150.511719 L 42.289062 150.511719 Z M 42.289062 0 " clip-rule="nonzero"/></clipPath><clipPath id="fa34953c93"><path d="M 117.546875 0 C 75.980469 0 42.289062 33.691406 42.289062 75.257812 C 42.289062 116.820312 75.980469 150.511719 117.546875 150.511719 C 159.109375 150.511719 192.800781 116.820312 192.800781 75.257812 C 192.800781 33.691406 159.109375 0 117.546875 0 Z M 117.546875 0 " clip-rule="nonzero"/></clipPath><clipPath id="3f8c71cfbb"><path d="M 0.0703125 38.9375 L 126 38.9375 L 126 132.378906 L 0.0703125 132.378906 Z M 0.0703125 38.9375 " clip-rule="nonzero"/></clipPath><clipPath id="cbfd324b81"><path d="M 100 62 L 148.828125 62 L 148.828125 111 L 100 111 Z M 100 62 " clip-rule="nonzero"/></clipPath></defs><g clip-path="url(#cab2deb2c4)"><g clip-path="url(#fa34953c93)"><path fill="#f2f8fe" d="M 42.289062 0 L 192.800781 0 L 192.800781 150.511719 L 42.289062 150.511719 Z M 42.289062 0 " fill-opacity="1" fill-rule="nonzero"/></g></g><path fill="#3d3d3d" d="M 53.59375 108.75 C 52.3125 108.75 51.265625 109.796875 51.265625 111.074219 C 51.265625 112.355469 52.3125 113.402344 53.59375 113.402344 L 72.210938 113.402344 C 73.488281 113.402344 74.535156 112.355469 74.535156 111.074219 C 74.535156 109.796875 73.488281 108.75 72.210938 108.75 Z M 53.59375 108.75 " fill-opacity="1" fill-rule="nonzero"/><path fill="#3d3d3d" d="M 21.132812 110.378906 C 21.132812 110.640625 21.082031 110.890625 20.980469 111.132812 C 20.882812 111.375 20.738281 111.589844 20.550781 111.777344 C 20.367188 111.960938 20.152344 112.105469 19.910156 112.203125 C 19.667969 112.304688 19.417969 112.355469 19.152344 112.355469 C 18.890625 112.355469 18.640625 112.304688 18.398438 112.203125 C 18.15625 112.105469 17.941406 111.960938 17.753906 111.777344 C 17.570312 111.589844 17.425781 111.375 17.328125 111.132812 C 17.226562 110.890625 17.175781 110.640625 17.175781 110.378906 C 17.175781 110.113281 17.226562 109.863281 17.328125 109.621094 C 17.425781 109.378906 17.570312 109.164062 17.753906 108.980469 C 17.941406 108.792969 18.15625 108.648438 18.398438 108.550781 C 18.640625 108.449219 18.890625 108.398438 19.152344 108.398438 C 19.417969 108.398438 19.667969 108.449219 19.910156 108.550781 C 20.152344 108.648438 20.367188 108.792969 20.550781 108.980469 C 20.738281 109.164062 20.882812 109.378906 20.980469 109.621094 C 21.082031 109.863281 21.132812 110.113281 21.132812 110.378906 Z M 21.132812 110.378906 " fill-opacity="1" fill-rule="nonzero"/><path fill="#3d3d3d" d="M 13.335938 110.378906 C 13.335938 110.640625 13.285156 110.890625 13.1875 111.132812 C 13.085938 111.375 12.941406 111.589844 12.757812 111.777344 C 12.570312 111.960938 12.359375 112.105469 12.117188 112.203125 C 11.875 112.304688 11.621094 112.355469 11.359375 112.355469 C 11.097656 112.355469 10.84375 112.304688 10.601562 112.203125 C 10.359375 112.105469 10.144531 111.960938 9.960938 111.777344 C 9.773438 111.589844 9.632812 111.375 9.53125 111.132812 C 9.429688 110.890625 9.378906 110.640625 9.378906 110.378906 C 9.378906 110.113281 9.429688 109.863281 9.53125 109.621094 C 9.632812 109.378906 9.773438 109.164062 9.960938 108.980469 C 10.144531 108.792969 10.359375 108.648438 10.601562 108.550781 C 10.84375 108.449219 11.097656 108.398438 11.359375 108.398438 C 11.621094 108.398438 11.875 108.449219 12.117188 108.550781 C 12.359375 108.648438 12.570312 108.792969 12.757812 108.980469 C 12.941406 109.164062 13.085938 109.378906 13.1875 109.621094 C 13.285156 109.863281 13.335938 110.113281 13.335938 110.378906 Z M 13.335938 110.378906 " fill-opacity="1" fill-rule="nonzero"/><path fill="#3d3d3d" d="M 52.082031 57.4375 C 51.382812 56.390625 49.871094 56.042969 48.824219 56.742188 L 27.878906 70.703125 C 27.183594 71.167969 26.832031 71.867188 26.832031 72.679688 C 26.832031 73.496094 27.183594 74.191406 27.878906 74.65625 C 27.878906 74.65625 48.824219 88.621094 48.824219 88.621094 C 49.871094 89.316406 51.382812 89.085938 52.082031 87.921875 C 52.777344 86.875 52.546875 85.363281 51.382812 84.664062 L 33.347656 72.679688 L 51.382812 60.695312 C 52.429688 60 52.777344 58.484375 52.082031 57.4375 Z M 52.082031 57.4375 " fill-opacity="1" fill-rule="nonzero"/><path fill="#3d3d3d" d="M 73.722656 87.921875 C 74.417969 88.96875 75.933594 89.316406 76.980469 88.621094 L 97.921875 74.65625 C 98.621094 74.191406 98.96875 73.496094 98.96875 72.679688 C 98.96875 71.867188 98.621094 71.167969 97.921875 70.703125 L 76.980469 56.742188 C 75.933594 56.042969 74.417969 56.273438 73.722656 57.4375 C 73.023438 58.484375 73.257812 60 74.417969 60.695312 L 92.453125 72.679688 L 74.417969 84.664062 C 73.371094 85.363281 73.023438 86.875 73.722656 87.921875 Z M 73.722656 87.921875 " fill-opacity="1" fill-rule="nonzero"/><path fill="#3d3d3d" d="M 65.34375 54.644531 L 56.035156 89.550781 C 55.6875 90.832031 56.503906 92.109375 57.664062 92.34375 C 57.898438 92.34375 58.015625 92.460938 58.246094 92.460938 C 59.292969 92.460938 60.226562 91.761719 60.457031 90.714844 L 69.765625 55.808594 C 70.113281 54.53125 69.300781 53.25 68.136719 53.015625 C 66.972656 52.667969 65.695312 53.367188 65.34375 54.644531 Z M 65.34375 54.644531 " fill-opacity="1" fill-rule="nonzero"/><g clip-path="url(#3f8c71cfbb)"><path fill="#3d3d3d" d="M 53.59375 127.363281 L 46.613281 127.363281 C 45.332031 127.363281 44.285156 128.410156 44.285156 129.691406 C 44.285156 130.972656 45.332031 132.019531 46.613281 132.019531 L 79.191406 132.019531 C 80.46875 132.019531 81.515625 130.972656 81.515625 129.691406 C 81.515625 128.410156 80.46875 127.363281 79.191406 127.363281 L 72.210938 127.363281 L 72.210938 120.382812 L 118.75 120.382812 C 121.773438 120.382812 124.332031 118.40625 125.265625 115.730469 L 122.820312 115.730469 C 121.773438 115.730469 120.84375 115.613281 119.914062 115.265625 C 119.5625 115.496094 119.097656 115.730469 118.632812 115.730469 L 7.054688 115.730469 C 5.773438 115.730469 4.726562 114.683594 4.726562 113.402344 L 4.726562 106.421875 L 103.15625 106.421875 L 102.808594 106.074219 C 101.644531 104.910156 100.714844 103.394531 100.25 101.765625 L 4.726562 101.765625 L 4.726562 45.917969 C 4.726562 44.640625 5.773438 43.59375 7.054688 43.59375 L 118.75 43.59375 C 120.027344 43.59375 121.074219 44.640625 121.074219 45.917969 L 121.074219 57.789062 C 121.65625 57.671875 122.238281 57.554688 122.9375 57.554688 L 125.730469 57.554688 L 125.730469 45.917969 C 125.730469 42.082031 122.589844 38.9375 118.75 38.9375 L 7.054688 38.9375 C 3.214844 38.9375 0.0742188 42.082031 0.0742188 45.917969 L 0.0742188 113.402344 C 0.0742188 117.242188 3.214844 120.382812 7.054688 120.382812 L 53.59375 120.382812 Z M 58.246094 120.382812 L 67.554688 120.382812 L 67.554688 127.363281 L 58.246094 127.363281 Z M 58.246094 120.382812 " fill-opacity="1" fill-rule="nonzero"/></g><g clip-path="url(#cbfd324b81)"><path fill="#3d3d3d" d="M 144.460938 79.3125 C 144.230469 78.730469 143.996094 78.265625 143.765625 77.683594 C 145.277344 75.472656 145.042969 72.449219 143.066406 70.46875 L 140.738281 68.140625 C 139.691406 67.09375 138.179688 66.511719 136.667969 66.511719 C 135.503906 66.511719 134.457031 66.863281 133.523438 67.445312 C 133.058594 67.210938 132.476562 66.980469 131.894531 66.746094 C 131.316406 64.070312 128.988281 62.207031 126.3125 62.207031 L 123.054688 62.207031 C 120.261719 62.207031 117.933594 64.1875 117.46875 66.746094 C 116.886719 66.980469 116.421875 67.210938 115.839844 67.445312 C 114.910156 66.863281 113.863281 66.511719 112.699219 66.511719 C 111.1875 66.511719 109.671875 67.09375 108.625 68.140625 L 106.300781 70.46875 C 104.320312 72.449219 104.089844 75.472656 105.601562 77.683594 C 105.367188 78.148438 105.136719 78.730469 104.902344 79.3125 C 102.226562 79.894531 100.367188 82.222656 100.367188 84.898438 L 100.367188 88.15625 C 100.367188 90.945312 102.34375 93.273438 104.902344 93.738281 C 105.136719 94.320312 105.367188 94.785156 105.601562 95.367188 C 105.019531 96.300781 104.671875 97.347656 104.671875 98.507812 C 104.671875 100.023438 105.253906 101.535156 106.300781 102.582031 L 108.625 104.910156 C 109.671875 105.957031 111.1875 106.539062 112.699219 106.539062 C 113.863281 106.539062 114.910156 106.1875 115.839844 105.605469 C 116.304688 105.839844 116.886719 106.074219 117.46875 106.304688 C 118.050781 108.980469 120.378906 110.84375 123.054688 110.84375 L 126.3125 110.84375 C 129.105469 110.84375 131.429688 108.863281 131.894531 106.304688 C 132.476562 106.074219 132.945312 105.839844 133.523438 105.605469 C 134.457031 106.1875 135.503906 106.539062 136.667969 106.539062 C 138.179688 106.539062 139.691406 105.957031 140.738281 104.910156 L 143.066406 102.582031 C 144.113281 101.535156 144.695312 100.023438 144.695312 98.507812 C 144.695312 97.347656 144.347656 96.300781 143.765625 95.367188 C 143.996094 94.902344 144.230469 94.320312 144.460938 93.738281 C 147.136719 93.15625 149 90.832031 149 88.15625 L 149 84.898438 C 149 82.222656 147.023438 79.894531 144.460938 79.3125 Z M 144.347656 88.269531 C 144.347656 88.851562 143.878906 89.316406 143.296875 89.316406 L 140.855469 89.316406 C 140.390625 91.878906 139.460938 94.089844 138.0625 96.066406 L 139.808594 97.8125 C 140.273438 98.277344 140.273438 98.976562 139.808594 99.324219 L 137.480469 101.652344 C 137.25 101.882812 137.015625 102 136.667969 102 C 136.316406 102 136.085938 101.882812 135.851562 101.652344 L 134.105469 99.90625 C 132.128906 101.300781 129.800781 102.347656 127.359375 102.699219 L 127.359375 105.140625 C 127.359375 105.722656 126.894531 106.1875 126.3125 106.1875 L 123.054688 106.1875 C 122.472656 106.1875 122.007812 105.722656 122.007812 105.140625 L 122.007812 102.929688 C 119.445312 102.464844 117.238281 101.535156 115.257812 100.136719 L 113.28125 101.765625 C 113.046875 102 112.816406 102.117188 112.464844 102.117188 C 112.117188 102.117188 112 102 111.769531 101.765625 L 109.441406 99.441406 C 108.976562 98.976562 108.976562 98.277344 109.441406 97.929688 L 111.1875 96.183594 C 109.789062 94.203125 108.742188 91.878906 108.394531 89.433594 L 105.949219 89.433594 C 105.367188 89.433594 104.902344 88.96875 104.902344 88.386719 L 104.902344 85.128906 C 104.902344 84.546875 105.367188 84.082031 105.949219 84.082031 L 108.277344 84.082031 C 108.742188 81.523438 109.671875 79.3125 111.070312 77.335938 L 109.441406 75.355469 C 108.976562 74.890625 108.976562 74.191406 109.441406 73.84375 L 111.769531 71.515625 C 112 71.285156 112.234375 71.167969 112.582031 71.167969 C 112.929688 71.167969 113.164062 71.285156 113.398438 71.515625 L 115.140625 73.261719 C 117.121094 71.867188 119.445312 70.820312 121.890625 70.46875 L 121.890625 68.027344 C 121.890625 67.445312 122.355469 66.980469 122.9375 66.980469 L 126.195312 66.980469 C 126.777344 66.980469 127.242188 67.445312 127.242188 68.027344 L 127.242188 70.351562 C 129.800781 70.820312 132.011719 71.75 133.992188 73.144531 L 135.734375 71.398438 C 135.96875 71.167969 136.203125 71.050781 136.550781 71.050781 C 136.898438 71.050781 137.132812 71.167969 137.363281 71.398438 L 139.691406 73.726562 C 140.15625 74.191406 140.15625 74.890625 139.691406 75.238281 L 137.945312 76.984375 C 139.34375 78.964844 140.390625 81.289062 140.738281 83.734375 L 143.183594 83.734375 C 143.765625 83.734375 144.230469 84.199219 144.230469 84.78125 L 144.230469 88.269531 Z M 144.347656 88.269531 " fill-opacity="1" fill-rule="nonzero"/></g><path fill="#3d3d3d" d="M 124.566406 77.335938 C 119.445312 77.335938 115.257812 81.523438 115.257812 86.640625 C 115.257812 91.761719 119.445312 95.949219 124.566406 95.949219 C 129.6875 95.949219 133.875 91.761719 133.875 86.640625 C 133.875 81.523438 129.6875 77.335938 124.566406 77.335938 Z M 124.566406 91.296875 C 122.007812 91.296875 119.914062 89.203125 119.914062 86.640625 C 119.914062 84.082031 122.007812 81.988281 124.566406 81.988281 C 127.125 81.988281 129.21875 84.082031 129.21875 86.640625 C 129.21875 89.203125 127.125 91.296875 124.566406 91.296875 Z M 124.566406 91.296875 " fill-opacity="1" fill-rule="nonzero"/></svg>