<svg xmlns="http://www.w3.org/2000/svg" xmlns:xlink="http://www.w3.org/1999/xlink" width="225" zoomAndPan="magnify" viewBox="0 0 168.75 151.500001" height="202" preserveAspectRatio="xMidYMid meet" version="1.0"><defs><clipPath id="144ad786be"><path d="M 17.3125 0 L 167.824219 0 L 167.824219 150.511719 L 17.3125 150.511719 Z M 17.3125 0 " clip-rule="nonzero"/></clipPath><clipPath id="d0bba1ad25"><path d="M 92.566406 0 C 51.003906 0 17.3125 33.691406 17.3125 75.257812 C 17.3125 116.820312 51.003906 150.511719 92.566406 150.511719 C 134.128906 150.511719 167.824219 116.820312 167.824219 75.257812 C 167.824219 33.691406 134.128906 0 92.566406 0 Z M 92.566406 0 " clip-rule="nonzero"/></clipPath><clipPath id="1c021fe1d8"><path d="M 0.152344 18.808594 L 127.980469 18.808594 L 127.980469 150.371094 L 0.152344 150.371094 Z M 0.152344 18.808594 " clip-rule="nonzero"/></clipPath></defs><g clip-path="url(#144ad786be)"><g clip-path="url(#d0bba1ad25)"><path fill="#f2f8fe" d="M 17.3125 0 L 167.824219 0 L 167.824219 150.511719 L 17.3125 150.511719 Z M 17.3125 0 " fill-opacity="1" fill-rule="nonzero"/></g></g><g clip-path="url(#1c021fe1d8)"><path fill="#3d3d3d" d="M 67.675781 144.816406 C 69.195312 144.816406 70.425781 146.046875 70.425781 147.566406 C 70.425781 148.960938 69.390625 150.109375 68.046875 150.292969 L 67.675781 150.316406 L 60.335938 150.316406 C 58.820312 150.316406 57.585938 149.085938 57.585938 147.566406 C 57.585938 146.171875 58.621094 145.023438 59.964844 144.839844 L 60.335938 144.816406 Z M 75.011719 137.480469 C 76.53125 137.480469 77.761719 138.710938 77.761719 140.230469 C 77.761719 141.621094 76.726562 142.773438 75.382812 142.957031 L 75.011719 142.980469 L 53 142.980469 C 51.480469 142.980469 50.25 141.75 50.25 140.230469 C 50.25 138.835938 51.285156 137.6875 52.628906 137.503906 L 53 137.480469 Z M 78.679688 130.140625 C 80.199219 130.140625 81.429688 131.375 81.429688 132.894531 C 81.429688 134.285156 80.394531 135.4375 79.054688 135.621094 L 78.679688 135.644531 L 49.332031 135.644531 C 47.8125 135.644531 46.582031 134.414062 46.582031 132.894531 C 46.582031 131.5 47.617188 130.347656 48.960938 130.167969 L 49.332031 130.140625 Z M 64.007812 45.769531 C 83.757812 45.769531 99.773438 61.78125 99.773438 81.535156 C 99.773438 89.96875 94.746094 99.085938 84.898438 108.992188 C 82.863281 111.039062 81.648438 113.75 81.460938 116.609375 L 81.433594 117.394531 L 81.429688 123.722656 C 81.429688 126.097656 79.625 128.046875 77.3125 128.285156 L 76.84375 128.308594 L 51.167969 128.308594 C 48.792969 128.308594 46.839844 126.503906 46.605469 124.191406 L 46.582031 123.722656 L 46.582031 117.398438 C 46.582031 114.25 45.335938 111.226562 43.117188 108.996094 C 33.269531 99.085938 28.238281 89.96875 28.238281 81.535156 C 28.238281 61.78125 44.253906 45.769531 64.007812 45.769531 Z M 31.089844 111.375 C 32.074219 112.363281 32.15625 113.90625 31.335938 114.984375 L 31.089844 115.265625 L 23.308594 123.050781 C 22.234375 124.125 20.492188 124.125 19.417969 123.050781 C 18.433594 122.0625 18.351562 120.519531 19.171875 119.441406 L 19.417969 119.160156 L 27.199219 111.375 C 28.273438 110.300781 30.015625 110.300781 31.089844 111.375 Z M 100.84375 111.128906 L 101.125 111.375 L 108.90625 119.160156 C 109.984375 120.234375 109.984375 121.976562 108.90625 123.050781 C 107.921875 124.035156 106.378906 124.117188 105.300781 123.296875 L 105.015625 123.050781 L 97.234375 115.265625 C 96.160156 114.191406 96.160156 112.449219 97.234375 111.375 C 98.21875 110.390625 99.765625 110.308594 100.84375 111.128906 Z M 64.007812 51.273438 C 47.292969 51.273438 33.742188 64.820312 33.742188 81.535156 C 33.742188 88.242188 38.097656 96.140625 47.019531 105.117188 C 50.046875 108.164062 51.835938 112.210938 52.058594 116.480469 L 52.082031 117.398438 L 52.082031 122.804688 L 75.929688 122.804688 L 75.929688 117.394531 C 75.933594 113.40625 77.300781 109.558594 79.773438 106.480469 L 80.367188 105.78125 L 80.996094 105.113281 C 89.914062 96.140625 94.269531 88.242188 94.269531 81.535156 C 94.269531 64.820312 80.71875 51.273438 64.007812 51.273438 Z M 14.640625 75.550781 C 16.160156 75.550781 17.390625 76.785156 17.390625 78.304688 C 17.390625 79.695312 16.355469 80.847656 15.011719 81.03125 L 14.640625 81.054688 L 3.636719 81.054688 C 2.117188 81.054688 0.882812 79.824219 0.882812 78.304688 C 0.882812 76.910156 1.917969 75.761719 3.261719 75.578125 L 3.636719 75.550781 Z M 124.691406 75.550781 C 126.210938 75.550781 127.441406 76.785156 127.441406 78.304688 C 127.441406 79.695312 126.40625 80.847656 125.0625 81.03125 L 124.691406 81.054688 L 113.6875 81.054688 C 112.167969 81.054688 110.933594 79.824219 110.933594 78.304688 C 110.933594 76.910156 111.96875 75.761719 113.3125 75.578125 L 113.6875 75.550781 Z M 67.675781 56.773438 C 79.324219 56.773438 88.769531 66.21875 88.769531 77.867188 C 88.769531 79.386719 87.535156 80.617188 86.015625 80.617188 C 84.496094 80.617188 83.265625 79.386719 83.265625 77.867188 C 83.265625 69.257812 76.285156 62.277344 67.675781 62.277344 C 66.15625 62.277344 64.921875 61.046875 64.921875 59.527344 C 64.921875 58.007812 66.15625 56.773438 67.675781 56.773438 Z M 23.027344 33.3125 L 23.308594 33.558594 L 31.089844 41.339844 C 32.164062 42.414062 32.164062 44.15625 31.089844 45.230469 C 30.105469 46.214844 28.558594 46.296875 27.480469 45.476562 L 27.199219 45.230469 L 19.417969 37.449219 C 18.34375 36.375 18.34375 34.632812 19.417969 33.558594 C 20.402344 32.574219 21.949219 32.492188 23.027344 33.3125 Z M 108.90625 33.558594 C 109.894531 34.542969 109.976562 36.089844 109.15625 37.167969 L 108.90625 37.449219 L 101.125 45.230469 C 100.050781 46.304688 98.308594 46.304688 97.234375 45.230469 C 96.25 44.246094 96.167969 42.699219 96.988281 41.621094 L 97.234375 41.339844 L 105.015625 33.558594 C 106.089844 32.484375 107.832031 32.484375 108.90625 33.558594 Z M 64.164062 18.691406 C 65.554688 18.691406 66.707031 19.726562 66.890625 21.070312 L 66.914062 21.445312 L 66.914062 32.449219 C 66.914062 33.96875 65.683594 35.199219 64.164062 35.199219 C 62.769531 35.199219 61.617188 34.164062 61.4375 32.824219 L 61.410156 32.449219 L 61.410156 21.445312 C 61.410156 19.925781 62.644531 18.691406 64.164062 18.691406 Z M 64.164062 18.691406 " fill-opacity="1" fill-rule="nonzero"/></g></svg>